<svg width="685" height="69" viewBox="0 0 685 69" fill="none" xmlns="http://www.w3.org/2000/svg">
<path d="M7.57047 0.8L6.61047 11.04H1.57047L0.610469 0.8H7.57047ZM18.1705 0.8L17.2105 11.04H12.1705L11.2505 0.8H18.1705ZM29.6586 0.8H23.0986V28H29.6586V0.8ZM60.0748 0.8H34.1548V6.88H43.7948V28H50.4348V6.88H60.0748V0.8ZM70.3439 0.8L69.3839 11.04H64.3439L63.3839 0.8H70.3439ZM85.487 0.319999C79.287 0.319999 74.407 4 74.407 8.96C74.407 15 81.567 16.52 85.647 17.48C88.167 18.08 90.447 18.68 90.447 20.4C90.447 21.56 89.367 22.8 86.447 22.8C81.047 22.8 80.527 18.48 80.527 18.48H74.007C74.007 22.72 77.567 28.48 86.087 28.48C92.447 28.48 97.007 25.24 97.007 20.04C97.007 14.04 90.967 12.6 86.687 11.48C82.847 10.48 81.047 9.96 81.047 8.64C81.047 7.08 83.447 6.2 85.407 6.2C88.207 6.2 89.807 8.04 89.807 9.4H96.327C96.327 5.16 92.567 0.319999 85.487 0.319999ZM121.542 0.319999C115.342 0.319999 110.462 4 110.462 8.96C110.462 15 117.622 16.52 121.702 17.48C124.222 18.08 126.502 18.68 126.502 20.4C126.502 21.56 125.422 22.8 122.502 22.8C117.102 22.8 116.582 18.48 116.582 18.48H110.062C110.062 22.72 113.622 28.48 122.142 28.48C128.502 28.48 133.062 25.24 133.062 20.04C133.062 14.04 127.022 12.6 122.742 11.48C118.902 10.48 117.102 9.96 117.102 8.64C117.102 7.08 119.502 6.2 121.462 6.2C124.262 6.2 125.862 8.04 125.862 9.4H132.382C132.382 5.16 128.622 0.319999 121.542 0.319999ZM150.144 0.319999C142.344 0.319999 136.104 6.68 136.104 14.4C136.104 22.16 142.344 28.48 150.144 28.48C157.864 28.48 164.184 22.16 164.184 14.4C164.184 6.68 157.864 0.319999 150.144 0.319999ZM150.144 6.44C154.504 6.44 158.104 10 158.104 14.4C158.104 18.84 154.504 22.4 150.144 22.4C145.704 22.4 142.104 18.84 142.104 14.4C142.104 10 145.704 6.44 150.144 6.44ZM184.541 0.8H177.981V28H184.541V0.8ZM217.198 0.8H210.598V17.4L196.838 0.8H190.238V28H196.838V11.36L210.598 28H217.198V0.8ZM243.463 18.2C242.143 20.6 239.663 22.32 236.303 22.32C231.543 22.32 228.223 18.52 228.223 14.2C228.223 9.72 231.543 6.24 236.303 6.24C239.743 6.24 242.263 7.88 243.543 10.36L249.103 7.12C246.663 3.04 242.103 0.319999 236.303 0.319999C227.783 0.319999 221.583 6.64 221.583 14.2C221.583 22.24 227.783 28.48 236.303 28.48C242.063 28.48 246.583 25.48 249.023 21.4L243.463 18.2ZM266.571 0.8H253.411V28H259.971V21.24H264.771L268.851 28H277.011L271.411 19.8C274.331 18.24 276.251 14.92 276.251 11C276.251 5.08 272.091 0.8 266.571 0.8ZM265.651 6.88C267.851 6.88 269.651 8.76 269.651 11C269.651 13.28 267.851 15.16 265.611 15.16H259.971V6.88H265.651ZM281.692 0.8V28H302.532V21.92H288.252V17.24H300.172V11.56H288.252V6.88H302.532V0.8H281.692ZM319.904 0.8L307.864 0.839999V28H319.904C328.384 28 334.264 22.28 334.264 14.36C334.264 6.52 328.864 0.759998 319.904 0.8ZM314.424 6.88H319.904C324.544 6.88 327.624 9.48 327.624 14.36C327.624 18.92 324.464 21.92 319.904 21.92H314.424V6.88ZM345.44 0.8H338.88V28H345.44V0.8ZM371.136 13.48C371.736 13.04 373.696 11.08 373.696 8.28C373.696 3.92 371.216 0.8 363.336 0.8H351.536V28H364.936C372.376 28 375.216 24.52 375.216 20.08C375.216 17.16 373.776 14.8 371.136 13.48ZM363.736 12.08H358.096V6.4H363.736C366.256 6.4 367.456 7.28 367.456 9.12C367.456 11.24 366.576 12.08 363.736 12.08ZM368.136 19.72C368.136 21.48 366.816 22.36 364.176 22.36H358.096V17.08H364.176C366.776 17.08 368.136 17.72 368.136 19.72ZM386.377 0.8H379.817V28H400.657V21.92H386.377V0.8ZM405.325 0.8V28H426.165V21.92H411.885V17.24H423.805V11.56H411.885V6.88H426.165V0.8H405.325ZM465.309 0.8H439.389V6.88H449.029V28H455.669V6.88H465.309V0.8ZM480.457 0.319999C472.657 0.319999 466.417 6.68 466.417 14.4C466.417 22.16 472.657 28.48 480.457 28.48C488.177 28.48 494.497 22.16 494.497 14.4C494.497 6.68 488.177 0.319999 480.457 0.319999ZM480.457 6.44C484.817 6.44 488.417 10 488.417 14.4C488.417 18.84 484.817 22.4 480.457 22.4C476.017 22.4 472.417 18.84 472.417 14.4C472.417 10 476.017 6.44 480.457 6.44ZM529.134 0.8H508.294V28H514.854V19.16H526.774V13.12H514.854V6.88H529.134V0.8ZM540.83 0.8H534.27V28H540.83V0.8ZM573.487 0.8H566.887V17.4L553.127 0.8H546.527V28H553.127V11.36L566.887 28H573.487V0.8ZM601.232 28H608.232L596.552 0.8H589.232L577.592 28H584.552L586.352 23.76H599.472L601.232 28ZM588.632 18.4L592.952 8.24L597.192 18.4H588.632ZM619.229 0.8H612.669V28H633.509V21.92H619.229V0.8ZM644.737 0.8H638.177V28H659.017V21.92H644.737V0.8ZM684.627 0.8H676.987L669.707 11.92L662.307 0.8H654.747L666.347 17.72V28H672.947V17.72L684.627 0.8ZM172.308 53.48C172.908 53.04 174.868 51.08 174.868 48.28C174.868 43.92 172.388 40.8 164.508 40.8H152.708V68H166.108C173.548 68 176.388 64.52 176.388 60.08C176.388 57.16 174.948 54.8 172.308 53.48ZM164.908 52.08H159.268V46.4H164.908C167.428 46.4 168.628 47.28 168.628 49.12C168.628 51.24 167.748 52.08 164.908 52.08ZM169.308 59.72C169.308 61.48 167.988 62.36 165.348 62.36H159.268V57.08H165.348C167.948 57.08 169.308 57.72 169.308 59.72ZM180.989 40.8V68H201.829V61.92H187.549V57.24H199.469V51.56H187.549V46.88H201.829V40.8H180.989ZM241.533 40.8H234.893V54.04C234.893 59.28 232.333 62.4 228.253 62.4C224.093 62.4 221.853 59.28 221.853 54.04V40.8H215.293V54.04C215.293 63.04 220.533 68.48 228.253 68.48C235.853 68.48 241.533 63.04 241.533 54.04V40.8ZM272.823 40.8H266.223V57.4L252.463 40.8H245.863V68H252.463V51.36L266.223 68H272.823V40.8ZM290.568 40.8L278.528 40.84V68H290.568C299.048 68 304.928 62.28 304.928 54.36C304.928 46.52 299.528 40.76 290.568 40.8ZM285.088 46.88H290.568C295.208 46.88 298.288 49.48 298.288 54.36C298.288 58.92 295.128 61.92 290.568 61.92H285.088V46.88ZM309.544 40.8V68H330.384V61.92H316.104V57.24H328.024V51.56H316.104V46.88H330.384V40.8H309.544ZM348.876 40.8H335.716V68H342.276V61.24H347.076L351.156 68H359.316L353.716 59.8C356.636 58.24 358.556 54.92 358.556 51C358.556 45.08 354.396 40.8 348.876 40.8ZM347.956 46.88C350.156 46.88 351.956 48.76 351.956 51C351.956 53.28 350.156 55.16 347.916 55.16H342.276V46.88H347.956ZM373.182 40.32C366.982 40.32 362.102 44 362.102 48.96C362.102 55 369.262 56.52 373.342 57.48C375.862 58.08 378.142 58.68 378.142 60.4C378.142 61.56 377.062 62.8 374.142 62.8C368.742 62.8 368.222 58.48 368.222 58.48H361.702C361.702 62.72 365.262 68.48 373.782 68.48C380.142 68.48 384.702 65.24 384.702 60.04C384.702 54.04 378.662 52.6 374.382 51.48C370.542 50.48 368.742 49.96 368.742 48.64C368.742 47.08 371.142 46.2 373.102 46.2C375.902 46.2 377.502 48.04 377.502 49.4H384.022C384.022 45.16 380.262 40.32 373.182 40.32ZM412.614 40.8H386.694V46.88H396.334V68H402.974V46.88H412.614V40.8ZM427.761 40.32C419.961 40.32 413.721 46.68 413.721 54.4C413.721 62.16 419.961 68.48 427.761 68.48C435.481 68.48 441.801 62.16 441.801 54.4C441.801 46.68 435.481 40.32 427.761 40.32ZM427.761 46.44C432.121 46.44 435.721 50 435.721 54.4C435.721 58.84 432.121 62.4 427.761 62.4C423.321 62.4 419.721 58.84 419.721 54.4C419.721 50 423.321 46.44 427.761 46.44ZM458.386 40.32C450.586 40.32 444.346 46.68 444.346 54.4C444.346 62.16 450.586 68.48 458.386 68.48C466.106 68.48 472.426 62.16 472.426 54.4C472.426 46.68 466.106 40.32 458.386 40.32ZM458.386 46.44C462.746 46.44 466.346 50 466.346 54.4C466.346 58.84 462.746 62.4 458.386 62.4C453.946 62.4 450.346 58.84 450.346 54.4C450.346 50 453.946 46.44 458.386 46.44ZM488.771 40.8L476.731 40.84V68H488.771C497.251 68 503.131 62.28 503.131 54.36C503.131 46.52 497.731 40.76 488.771 40.8ZM483.291 46.88H488.771C493.411 46.88 496.491 49.48 496.491 54.36C496.491 58.92 493.331 61.92 488.771 61.92H483.291V46.88ZM508.465 60.64C506.385 60.64 504.625 62.44 504.625 64.64C504.625 66.72 506.385 68.48 508.465 68.48C510.665 68.48 512.465 66.72 512.465 64.64C512.465 62.44 510.665 60.64 508.465 60.64ZM522.844 40.8L521.884 51.04H516.844L515.884 40.8H522.844ZM533.444 40.8L532.484 51.04H527.444L526.524 40.8H533.444Z" fill="white"/>
</svg>
